[Header]
FileType HTR
DataType HTRS
FileVersion 1
NumSegments 22
NumFrames 4
DataFrameRate 24
EulerRotationOrder ZYX
CalibrationUnits mm
RotationUnits Degrees
GlobalAxisofGravity Y
BoneLengthAxis Y
ScaleFactor 1.0
[SegmentNames&Hierarchy]
reference	GLOBAL
Hips	reference
Spine	Hips
Spine1	Spine
Neck	Spine1
Head	Neck
LeftShoulder	Spine1
LeftArm	LeftShoulder
LeftForeArm	LeftArm
LeftHand	LeftForeArm
RightShoulder	Spine1
RightArm	RightShoulder
RightForeArm	RightArm
RightHand	RightForeArm
LeftUpLeg	Hips
LeftLeg	LeftUpLeg
LeftFoot	LeftLeg
LeftToeBase	LeftFoot
RightUpLeg	Hips
RightLeg	RightUpLeg
RightFoot	RightLeg
RightToeBase	RightFoot
[BasePosition]
reference	0	0	0	0	0	0	1
Hips	0	0	0	0	0	0	1
Spine	0	0	0	0	-0	90	1
Spine1	0	0	0	0	0	0	1
Neck	0	0	0	-7.352430803	-7.352430803	90	1
Head	0	0	0	0	-0	90	1
LeftShoulder	0	0	0	0	0	0	1
LeftArm	0	0	0	0	0	0	1
LeftForeArm	0	0	0	0	0	0	1
LeftHand	0	0	0	0	0	0	1
RightShoulder	0	0	0	0	-0	180	1
RightArm	0	0	0	0	-0	180	1
RightForeArm	0	0	0	0	-0	180	1
RightHand	0	0	0	0	-0	180	1
LeftUpLeg	0	0	0	0	-0	-90	1
LeftLeg	0	0	0	0	-0	-90	1
LeftFoot	0	0	0	66.57150701	-66.57150701	-90	1
LeftToeBase	0	0	0	0	-90	0	1
RightUpLeg	0	0	0	0	-0	-90	1
RightLeg	0	0	0	0	-0	-90	1
RightFoot	0	0	0	66.57150701	-66.57150701	-90	1
RightToeBase	0	0	0	0	-90	0	1
[reference]
28	0	0	0	0	-0	0	1.0
29	0	0	0	0	-0	0	1.0
30	0	0	0	0	-0	0	1.0
31	0	0	0	0	-0	0	1.0
[Hips]
28	5.026524067	8.305223465	0.6810016632	6.155264854	-101.0932236	-8.426054001	1.0
29	4.853799343	8.256912231	0.6418886185	8.557197571	-99.55427551	-10.52876759	1.0
30	4.657634735	8.204945564	0.5951163769	9.737495422	-97.34029388	-11.4015007	1.0
31	4.403690338	8.117991447	0.5457800031	9.238677979	-94.56119537	-11.19908142	1.0
[Spine]
28	0	0.7478299737	0	-6.954648018	-0.5607718229	-89.34545898	1.0
29	0	0.7478299737	0	-6.980357647	-0.06749196351	-89.44716644	1.0
30	0	0.7478299737	0	-7.123447895	0.4174134135	-89.27705383	1.0
31	0	0.7478299737	0	-7.183048725	1.329120398	-89.10951233	1.0
[Spine1]
28	0	2.049309969	0	9.47898674	0.08619715273	-3.651534796	1.0
29	0	2.049309969	0	9.451306343	0.281650722	-3.82491231	1.0
30	0	2.049309969	0	9.072414398	0.45784235	-4.013491631	1.0
31	0	2.049309969	0	8.853552818	0.7839922309	-4.647787094	1.0
[Neck]
28	0	2.231709957	0	1.311155796	8.46353054	-87.4438858	1.0
29	0	2.231709957	0	0.8159540296	8.104081154	-87.97870636	1.0
30	0	2.231709957	0	0.1646193415	7.768439293	-88.67429352	1.0
31	0	2.231709957	0	-0.07010093331	7.216187477	-89.02923584	1.0
[Head]
28	0	1.413589954	0.1823999882	-10.35757542	1.59940958	-97.51647949	1.0
29	0	1.413589954	0.1823999882	-10.38765144	1.178439975	-97.30528259	1.0
30	0	1.413589954	0.1823999882	-9.497813225	0.8119405508	-96.67458344	1.0
31	0	1.413589954	0.1823999882	-8.978973389	0.2081732452	-95.65333557	1.0
[LeftShoulder]
28	0.3649300039	1.825889945	-0.04271000251	-9.758747101	-6.309539318	3.506354809	1.0
29	0.3649300039	1.825889945	-0.04271000251	-9.180791855	-5.735921383	3.703490973	1.0
30	0.3649300039	1.825889945	-0.04271000251	-8.344549179	-5.129921436	3.436634779	1.0
31	0.3649300039	1.825889945	-0.04271000251	-7.671156883	-4.100533962	4.164354801	1.0
[LeftArm]
28	1.24003005	0	0	30.19404793	9.813772202	-79.37304688	1.0
29	1.24003005	0	0	26.19265175	11.2447052	-78.55207825	1.0
30	1.24003005	0	0	21.93682098	12.98328114	-76.93161011	1.0
31	1.24003005	0	0	18.47158241	14.19857502	-75.20778656	1.0
[LeftForeArm]
28	2.847419977	0	0	-6.387504578	-27.0893383	-3.621878624	1.0
29	2.847419977	0	0	-3.516448021	-34.67841721	-3.73258543	1.0
30	2.847419977	0	0	-1.688951731	-45.1075058	-5.230064869	1.0
31	2.847419977	0	0	4.439619541	-57.51140213	-12.37913418	1.0
[LeftHand]
28	2.258270025	0	0	-7.222401619	-8.808112144	-0.4817537367	1.0
29	2.258270025	0	0	-4.832778931	-9.967629433	1.726421714	1.0
30	2.258270025	0	0	-3.754261732	-11.91920567	-1.005031109	1.0
31	2.258270025	0	0	-1.951847315	-12.4784956	-3.826879501	1.0
[RightShoulder]
28	-0.3646599948	1.825889945	-0.04271000251	-8.087774277	6.811628342	177.9312286	1.0
29	-0.3646599948	1.825889945	-0.04271000251	-7.678996563	6.960257053	177.3220215	1.0
30	-0.3646599948	1.825889945	-0.04271000251	-7.46606636	7.480165005	177.0280762	1.0
31	-0.3646599948	1.825889945	-0.04271000251	-7.421518326	7.908299446	176.5496674	1.0
[RightArm]
28	-1.24003005	0	0	41.50442123	-4.784959316	-97.95195007	1.0
29	-1.24003005	0	0	39.93771362	-4.706188679	-98.52711487	1.0
30	-1.24003005	0	0	38.82408524	-4.792308807	-99.60449219	1.0
31	-1.24003005	0	0	39.14592743	-5.184308529	-100.7370148	1.0
[RightForeArm]
28	-2.847419977	0	0	4.437641144	25.16409683	183.6741333	1.0
29	-2.847419977	0	0	4.40724802	30.42399025	183.7649231	1.0
30	-2.847419977	0	0	5.413232327	38.01618958	183.2585602	1.0
31	-2.847419977	0	0	5.356557846	48.55535126	180.9539185	1.0
[RightHand]
28	-2.258270025	0	0	3.907711267	10.97956657	183.0205078	1.0
29	-2.258270025	0	0	3.70029521	11.29359055	183.2174683	1.0
30	-2.258270025	0	0	4.629236221	12.07520103	183.0832825	1.0
31	-2.258270025	0	0	4.978518486	12.75583649	181.3725586	1.0
[LeftUpLeg]
28	0.9119900465	0	0	-24.79530525	-2.214259148	94.36405945	1.0
29	0.9119900465	0	0	-26.7441597	-2.771282196	94.90205383	1.0
30	0.9119900465	0	0	-28.04155731	-2.488780022	95.13237	1.0
31	0.9119900465	0	0	-28.2037735	-0.5647649765	94.1839447	1.0
[LeftLeg]
28	0	-4.371409893	0	58.15793228	2.046263456	64.86219788	1.0
29	0	-4.371409893	0	52.54829025	1.300408483	61.30059433	1.0
30	0	-4.371409893	0	45.43992615	1.204011202	60.39279175	1.0
31	0	-4.371409893	0	39.39869308	-0.02709142119	59.99511337	1.0
[LeftFoot]
28	0	-3.918009996	0	-58.37184143	119.7762527	-5.968634605	1.0
29	0	-3.918009996	0	-56.15517426	119.089325	-1.731811523	1.0
30	0	-3.918009996	0	-55.45171356	116.6983795	0.4872961044	1.0
31	0	-3.918009996	0	-61.75084686	117.1778641	-3.726752996	1.0
[LeftToeBase]
28	0	-0.5927900076	1.367989898	0	0	0	1.0
29	0	-0.5927900076	1.367989898	0	0	0	1.0
30	0	-0.5927900076	1.367989898	0	0	0	1.0
31	0	-0.5927900076	1.367989898	0	0	0	1.0
[RightUpLeg]
28	-0.9119900465	0	0	15.32299995	-23.97606087	87.1830368	1.0
29	-0.9119900465	0	0	16.65159607	-24.37266541	86.89955139	1.0
30	-0.9119900465	0	0	17.96001434	-27.37002945	86.52815247	1.0
31	-0.9119900465	0	0	20.34248734	-28.83158493	86.36306	1.0
[RightLeg]
28	0	-4.371409893	0	6.170247555	-4.418385029	89.29379272	1.0
29	0	-4.371409893	0	6.040303707	-5.891734123	89.44868469	1.0
30	0	-4.371409893	0	6.716988087	-5.9559412	88.71505737	1.0
31	0	-4.371409893	0	6.823438644	-6.589528561	88.64746094	1.0
[RightFoot]
28	0	-3.918009996	0	24.90704155	60.15534973	85.24389648	1.0
29	0	-3.918009996	0	23.82442856	60.07821274	84.42807007	1.0
30	0	-3.918009996	0	26.70491791	58.96658325	89.0519104	1.0
31	0	-3.918009996	0	27.10533524	57.96067429	90.32065582	1.0
[RightToeBase]
28	0	-0.5927900076	1.367989898	0	0	0	1.0
29	0	-0.5927900076	1.367989898	0	0	0	1.0
30	0	-0.5927900076	1.367989898	0	0	0	1.0
31	0	-0.5927900076	1.367989898	0	0	0	1.0
[EndOfFile]
